<svg class="red" 
    xmlns="http://www.w3.org/2000/svg" viewBox="0 0 168.28 195.84" data-di-res-id="e5765745-291e7dff" data-di-rand="1552806262894">
    <defs>
        <style data-di-res-id="721fb67e-8bbd2100" data-di-rand="1552806262881">.cls-1{fill: #a52828;}</style>
    </defs>
    <title>Pictet</title>
    <g id="Layer_2" data-name="Layer 2">
        <g id="Layer_1-2" data-name="Layer 1">
            <path class="cls-1" d="M0,45.12c-.12-5.41,5.1-7.19,10.46-6.66h.05a5.85,5.85,0,0,1,1.11-2.56c-1-.64-3.84-2-6.12.49,1.9-7.2,8.33-4.92,11.16-3.61a7.72,7.72,0,0,1,1.91-.11c4.85.32,9.81,6.22,13.48,9.24l.08.06c6.36,4.34,8.88,4.55,12.4,5.64.59,6.24,1.7,10.64,7.5,14.2a21.75,21.75,0,0,1-9.4-1.88c.18,3.36,1.07,9.59,5,12.65-6.37-3-12.31-5-17.62-11.83a13.86,13.86,0,0,0-1.4-1.51C21.22,53.16,17.11,64,10.3,57c-.54.49-3.76,2.11-1.78,5.34-6-3-2.46-8.42-.79-10.12a8.66,8.66,0,0,1-.15-2.48c-1.34.21-5.81,1.38-4.85,5C-1.38,48.58,4.59,46,6.27,45.19a6.78,6.78,0,0,1,.25-1.84c0-.06,0-.11.06-.17C2.93,42.15,1,43.79,0,45.12ZM151.93,83.59c-2.73,5-7,16.86,4.92,32.21,0-17.28,7.09-21.75,9.71-25.38a8.31,8.31,0,0,0,.43-9.48c-1.41-2.58-.53-4.6-.08-6.88,1.11-5.56.23-20.39-13.73-21.14-14.43-.78-29.46,14.85-18.92,63.89,2,9.22.91,23.73-17.41,23.73-24.45,0-25.94-30.22-17.29-41.49-1.26,1.09-7.18,4-18.65,3.55A37.35,37.35,0,0,0,84.74,96c-10.36,6.25-19.87.1-21.39-1.83,2.41-1.22,5-2.59,6.51-7.37-2.32,2-10.4,3.91-17.95,1.53a20.43,20.43,0,0,1-4.69-2.14c5-2.28,7.5-5.83,8.13-7.31A75.4,75.4,0,0,1,34,81.31c-5.49,0-9.31-2-14.21-3.09-3.07-.67-5.63-.15-7.46,1.33-3,0-10.95.89-9.49,8.3,1-3.85,5.23-3.52,6.72-3.3l0,.15a7.81,7.81,0,0,0-2.38,3.42C5.07,89-2.49,92.8,1.84,99,2,95.6,5,94.19,6.91,93.71a7.3,7.3,0,0,0,.95,1.87c-1.51,2.08-4.43,6.8,1.22,10.09-1-2.92.77-5.54,2.62-7.13a8.6,8.6,0,0,0,.64,2.2c-.65,1.75-2,9.54,5.08,9.38-2.57-1.21-1.4-4.56-.91-5.68a7.2,7.2,0,0,0,1.83.23c8.7,0,4.39-5.58,29.82-9.81a8.35,8.35,0,0,1,1.87,0c-6.57,26.62,14.66,31.61,14.66,42.28,0,3.73-2.76,6.62-7.85,6.62H8.72v11.43H164.67V143.79H138.83a32.35,32.35,0,0,0,5.87-30.26c-13.81-43.38,1.1-54.94,8.48-53.86,7.77,1.14,8.81,9.39,4.54,15.59C154.55,79.86,154.16,79.48,151.93,83.59ZM77.62,187.11c0,5.38-4.49,8.73-11.7,8.73-6.83,0-11.06-3.16-11.06-8.26,0-3,1.59-4.91,4.75-6.47l.89-.53-.82-.54a6.6,6.6,0,0,1-3.38-6.1c0-4.74,4.25-7.67,10.55-7.67s9.62,3.59,9.62,7.4c0,3.43-1.86,4.88-3.7,6l-1,.54,1,.43C76,182.14,77.62,184,77.62,187.11Zm-15.41-13.5c0,3.37,2.9,4.29,5.23,5l.56.18.33-.29a5.1,5.1,0,0,0,2.18-4A4.27,4.27,0,0,0,66.2,170,3.78,3.78,0,0,0,62.21,173.61ZM71.44,188c0-3.54-3.93-4.69-6.44-5.43l-1-.14a5.5,5.5,0,0,0-3,4.6c0,3.5,2.77,5.07,5.52,5.07C69.4,192.12,71.44,190.42,71.44,188Zm38.1-6.84c0,9.61-4,14.65-11.29,14.65s-11.15-5-11.15-14.65,4.16-14.93,11.43-14.93C105.63,166.26,109.54,171.39,109.54,181.18Zm-6.3.41c0-5.86-.61-11.28-5-11.28-4.79,0-4.79,5.87-4.79,10.59,0,6.54.85,10.89,5,10.89C103.24,191.8,103.24,186.14,103.24,181.6Zm23.07-5.38v-5.53h11.56l.53-4H121.25v14c10.42-2.7,12.53,3.38,12.39,5.91-.27,4.72-5.14,7.8-13.29,4.47l-1.4,3a17.93,17.93,0,0,0,8,1.72c9.68,0,12.78-5.45,12.78-10.1C139.71,181.68,136.51,175.53,126.3,176.22ZM40.24,191.45V166.17H38.69l-8.35,7V174h4.2v17.49c0,1.86-.43,1.49-3.93,2.78v1.23h13.6v-1.23C40.79,193,40.24,193.31,40.24,191.45Zm8.61-142.9c4.47.81,11.06-.61,13.17-1.24,1.92-.48,3.22-.41,4.62,1,11.74,12.5,28.62,5.22,29-9.28,0-1.07-.76-1-.94-.39-2.56,11.22-17.26,14.73-21.62,6.94a1.66,1.66,0,0,1,.49-2.27,1.16,1.16,0,0,0,.53-1.54,4.46,4.46,0,0,1,1.52-5.8C76.67,39.68,78,41,80,42c5.64,2.42,9.9-2.37,10.35-6.47a14.8,14.8,0,0,0,.11-1.5s-8.58-3.88-17.1-.19c-12,5.2-16.93-2.24-18.09-5.58,5.55,2.84,10.1,3.09,15.79,1.6C78.35,28,82.34,28.34,89.92,30c-1.43-5.09-5.71-8.25-9.43-8.59-5.11-.66-8.69,3.58-9.75,5.3-3.6-4.63-1.19-7.69-.58-8.42,1.09-1.41,3.21-2.65,5.33-3.89,1.65-1.09.15-2-1.22-1.41-1.62.55-3.43,1.83-5.88,2.52-.76.17-.88-.17-.95-.7,0-2.87,1.83-3.89,2.54-4.12a18.86,18.86,0,0,0,5.11-2.39A31.1,31.1,0,0,1,101,3.89s4.9-5.55,9.2-3.4c3.78,1.89-.29,7.37-.29,7.37.7.42,0,0,.34.27a11.05,11.05,0,0,1,2.23,1.73c3.68-2.36,8.77-4.41,11.06-2.18s.19,7.08-4,10.52c1.32,1.77,2.05,2.83,2.62,3.68h0c4.16,5.77,14.75,23.45,5,42.84-.19-1.18.07-3.81-1.54-6-5.35-6.11-4.9-12.79-5.12-13.82s-1.26-.83-1.7.16c-.67,1.44-3.25,7.1,2.71,15.92,1.7,2.51,5.29,9.1-2.46,19.75-.2-5.91-2.28-9.13-2.86-10-2.06-3-1.68-7.25-1.41-8.44.18-.84-.39-1.3-1.22-.67a9.15,9.15,0,0,0-2.31,5.68c-.07,4.74,2.88,9.15,3.34,11.37C116.69,89,105,94,103.44,94.75a14.06,14.06,0,0,0,2.71-14.36c-.93-2.46-2.73-6.07-2.35-8.4.21-1.34-.43-1.49-1.19-.82-2.9,2.56-.13,11.38-.23,13.44.17,2-.22,11.94-14.88,13.55.61-.78,5.57-9.55,3.17-18.16-.42-1.48-1.09-1-1.17,0-1,11.94-11.27,16.77-19.6,13.78,2.86-1.72,4-7.22,4.31-8.38a15.17,15.17,0,0,1,4.2-7.29c.84-.85.48-.92-.07-1-3.64-.17-6.32,4.69-9.12,6.23-4,2.22-11.33,2.41-14.31,1.55,1.45-.34,4.11-2.53,5.91-8.09a10.42,10.42,0,0,1,8.86-7.44c1.39-.17,1-.94,0-1.29-1.3-.42-4.34-.68-8.93,2.63-4.88,3.63-12,.66-13.31-6.26,3.08,1.09,7.35,1.45,12.72-1.49.57-.32,1.51-1.07.05-1.37C48.89,58.83,48.69,51.36,48.85,48.55Zm49-39.62c-1.47-1.23-8.49-2.34-14.28.2a14.54,14.54,0,0,1,3.34,5.92C88.82,12.7,92.17,10.16,97.85,8.94Z"></path>
        </g>
    </g>
</svg>